{
	"asset":{
		"generator":"Khronos glTF Blender I/O v3.6.27",
		"version":"2.0"
	},
	"extensionsUsed":[
		"KHR_materials_specular",
		"KHR_materials_ior"
	],
	"scene":0,
	"scenes":[
		{
			"name":"Scene",
			"nodes":[
				0,
				1,
				2,
				3,
				4,
				5,
				6,
				7,
				8
			]
		}
	],
	"nodes":[
		{
			"mesh":0,
			"name":"Plane",
			"scale":[
				42.906436920166016,
				42.906436920166016,
				42.906436920166016
			]
		},
		{
			"mesh":1,
			"name":"Haus_K\u00f6rper1",
			"rotation":[
				0.00886404700577259,
				-0.012482351623475552,
				0.054971352219581604,
				0.9983705878257751
			],
			"scale":[
				1.1506931781768799,
				0.1255301684141159,
				0.34869492053985596
			],
			"translation":[
				-9.247980117797852,
				-0.5377663969993591,
				0
			]
		},
		{
			"mesh":2,
			"name":"Cube.002",
			"rotation":[
				0,
				0.3851650059223175,
				0,
				0.9228477478027344
			],
			"scale":[
				1.257391095161438,
				0.08573121577501297,
				0.2857707142829895
			],
			"translation":[
				-13.101680755615234,
				-1.0679810047149658,
				-0.5557742118835449
			]
		},
		{
			"mesh":3,
			"name":"Dach",
			"rotation":[
				-0.04519578441977501,
				-0.02756226249039173,
				0.05921435356140137,
				0.99684077501297
			],
			"scale":[
				0.542161226272583,
				0.0623173825442791,
				0.19941562414169312
			],
			"translation":[
				-11.307344436645508,
				-1.6313397884368896,
				2.465768814086914
			]
		},
		{
			"mesh":4,
			"name":"Text",
			"rotation":[
				0.7279502153396606,
				0,
				0,
				0.6856300234794617
			],
			"scale":[
				0.6927025318145752,
				0.6927025318145752,
				0.6927025318145752
			],
			"translation":[
				-14.018533706665039,
				-0.7060010433197021,
				-0.46053868532180786
			]
		},
		{
			"mesh":5,
			"name":"Text.001",
			"rotation":[
				0.7279502153396606,
				0,
				0,
				0.6856299638748169
			],
			"scale":[
				0.3782152831554413,
				0.3782152831554413,
				0.3782152831554413
			],
			"translation":[
				-11.676896095275879,
				-1.4276238679885864,
				2.4481289386749268
			]
		},
		{
			"mesh":6,
			"name":"Text.002",
			"rotation":[
				0.7279502153396606,
				0,
				0,
				0.6856299638748169
			],
			"scale":[
				0.3782152831554413,
				0.3782152831554413,
				0.3782152831554413
			],
			"translation":[
				-9.533761024475098,
				-1.1581569910049438,
				0.036446183919906616
			]
		},
		{
			"mesh":7,
			"name":"Dach.001",
			"rotation":[
				-0.04519578441977501,
				-0.02756226249039173,
				0.05921435356140137,
				0.99684077501297
			],
			"scale":[
				0.542161226272583,
				0.0623173825442791,
				0.19941562414169312
			],
			"translation":[
				-11.307344436645508,
				-1.3286137580871582,
				2.465768814086914
			]
		},
		{
			"mesh":8,
			"name":"Haus_K\u00f6rper1.001",
			"rotation":[
				0.00886404700577259,
				-0.012482351623475552,
				0.054971352219581604,
				0.9983705878257751
			],
			"scale":[
				1.1506931781768799,
				0.1255301684141159,
				0.34869492053985596
			],
			"translation":[
				-9.247980117797852,
				-0.5377663969993591,
				0
			]
		}
	],
	"animations":[
		{
			"channels":[
				{
					"sampler":0,
					"target":{
						"node":1,
						"path":"translation"
					}
				}
			],
			"name":"Haus_K\u00f6rper1Action",
			"samplers":[
				{
					"input":34,
					"interpolation":"LINEAR",
					"output":35
				}
			]
		},
		{
			"channels":[
				{
					"sampler":0,
					"target":{
						"node":2,
						"path":"translation"
					}
				}
			],
			"name":"Cube.002Action",
			"samplers":[
				{
					"input":36,
					"interpolation":"LINEAR",
					"output":37
				}
			]
		},
		{
			"channels":[
				{
					"sampler":0,
					"target":{
						"node":3,
						"path":"translation"
					}
				}
			],
			"name":"DachAction",
			"samplers":[
				{
					"input":38,
					"interpolation":"LINEAR",
					"output":39
				}
			]
		},
		{
			"channels":[
				{
					"sampler":0,
					"target":{
						"node":4,
						"path":"translation"
					}
				}
			],
			"name":"TextAction",
			"samplers":[
				{
					"input":40,
					"interpolation":"LINEAR",
					"output":41
				}
			]
		},
		{
			"channels":[
				{
					"sampler":0,
					"target":{
						"node":5,
						"path":"translation"
					}
				}
			],
			"name":"Text.001Action",
			"samplers":[
				{
					"input":42,
					"interpolation":"LINEAR",
					"output":43
				}
			]
		},
		{
			"channels":[
				{
					"sampler":0,
					"target":{
						"node":6,
						"path":"translation"
					}
				}
			],
			"name":"Text.002Action",
			"samplers":[
				{
					"input":44,
					"interpolation":"LINEAR",
					"output":45
				}
			]
		},
		{
			"channels":[
				{
					"sampler":0,
					"target":{
						"node":7,
						"path":"translation"
					}
				}
			],
			"name":"Dach.001Action",
			"samplers":[
				{
					"input":46,
					"interpolation":"LINEAR",
					"output":47
				}
			]
		},
		{
			"channels":[
				{
					"sampler":0,
					"target":{
						"node":8,
						"path":"translation"
					}
				}
			],
			"name":"Haus_K\u00f6rper1.001Action",
			"samplers":[
				{
					"input":48,
					"interpolation":"LINEAR",
					"output":49
				}
			]
		}
	],
	"materials":[
		{
			"doubleSided":true,
			"extensions":{
				"KHR_materials_specular":{
					"specularColorFactor":[
						0,
						0,
						0
					]
				},
				"KHR_materials_ior":{
					"ior":1.4500000476837158
				}
			},
			"name":"Ground",
			"normalTexture":{
				"index":0
			},
			"pbrMetallicRoughness":{
				"baseColorTexture":{
					"index":1
				},
				"metallicFactor":0,
				"metallicRoughnessTexture":{
					"index":2
				}
			}
		},
		{
			"alphaMode":"BLEND",
			"doubleSided":true,
			"name":"Material.002",
			"pbrMetallicRoughness":{
				"baseColorFactor":[
					0.800000011920929,
					0.800000011920929,
					0.800000011920929,
					1
				],
				"metallicFactor":0,
				"roughnessFactor":0.5
			}
		}
	],
	"meshes":[
		{
			"name":"Plane",
			"primitives":[
				{
					"attributes":{
						"POSITION":0,
						"NORMAL":1,
						"TEXCOORD_0":2
					},
					"indices":3,
					"material":0
				}
			]
		},
		{
			"name":"Cube.001",
			"primitives":[
				{
					"attributes":{
						"POSITION":4,
						"NORMAL":5,
						"TEXCOORD_0":6
					},
					"indices":7
				}
			]
		},
		{
			"name":"Cube.008",
			"primitives":[
				{
					"attributes":{
						"POSITION":8,
						"NORMAL":9,
						"TEXCOORD_0":10
					},
					"indices":11
				}
			]
		},
		{
			"name":"Plane.001",
			"primitives":[
				{
					"attributes":{
						"POSITION":12,
						"NORMAL":13,
						"TEXCOORD_0":14
					},
					"indices":15
				}
			]
		},
		{
			"name":"Text",
			"primitives":[
				{
					"attributes":{
						"POSITION":16,
						"NORMAL":17,
						"TEXCOORD_0":18
					},
					"indices":19
				}
			]
		},
		{
			"name":"Text.001",
			"primitives":[
				{
					"attributes":{
						"POSITION":20,
						"NORMAL":21,
						"TEXCOORD_0":22
					},
					"indices":23
				}
			]
		},
		{
			"name":"Text.002",
			"primitives":[
				{
					"attributes":{
						"POSITION":24,
						"NORMAL":25,
						"TEXCOORD_0":26
					},
					"indices":27
				}
			]
		},
		{
			"name":"Plane.002",
			"primitives":[
				{
					"attributes":{
						"POSITION":28,
						"NORMAL":29,
						"TEXCOORD_0":30
					},
					"indices":15
				}
			]
		},
		{
			"name":"Cube.002",
			"primitives":[
				{
					"attributes":{
						"POSITION":31,
						"NORMAL":32,
						"TEXCOORD_0":33
					},
					"indices":7,
					"material":1
				}
			]
		}
	],
	"textures":[
		{
			"sampler":0,
			"source":0
		},
		{
			"sampler":0,
			"source":1
		},
		{
			"sampler":0,
			"source":2
		}
	],
	"images":[
		{
			"mimeType":"image/png",
			"name":"forrest_ground_01_nor_gl_2k",
			"uri":"Textures/forrest_ground_01_nor_gl_2k.png"
		},
		{
			"mimeType":"image/jpeg",
			"name":"forrest_ground_01_diff_2k",
			"uri":"Textures/forrest_ground_01_diff_2k.jpg"
		},
		{
			"mimeType":"image/png",
			"name":"forrest_ground_01_rough_2k",
			"uri":"Textures/forrest_ground_01_rough_2k.png"
		}
	],
	"accessors":[
		{
			"bufferView":0,
			"componentType":5126,
			"count":4096,
			"max":[
				1,
				0.2001880407333374,
				1
			],
			"min":[
				-1,
				-0.09188936650753021,
				-1.0003234148025513
			],
			"type":"VEC3"
		},
		{
			"bufferView":1,
			"componentType":5126,
			"count":4096,
			"type":"VEC3"
		},
		{
			"bufferView":2,
			"componentType":5126,
			"count":4096,
			"type":"VEC2"
		},
		{
			"bufferView":3,
			"componentType":5123,
			"count":6144,
			"type":"SCALAR"
		},
		{
			"bufferView":4,
			"componentType":5126,
			"count":1014,
			"max":[
				1.1820430755615234,
				1.5640417337417603,
				1.3199994564056396
			],
			"min":[
				-1.1818180084228516,
				-1.000000238418579,
				-1.054679274559021
			],
			"type":"VEC3"
		},
		{
			"bufferView":5,
			"componentType":5126,
			"count":1014,
			"type":"VEC3"
		},
		{
			"bufferView":6,
			"componentType":5126,
			"count":1014,
			"type":"VEC2"
		},
		{
			"bufferView":7,
			"componentType":5123,
			"count":2076,
			"type":"SCALAR"
		},
		{
			"bufferView":8,
			"componentType":5126,
			"count":474,
			"max":[
				1.3863633871078491,
				1.6666651964187622,
				1.4000000953674316
			],
			"min":[
				-1.3863633871078491,
				-11.666666030883789,
				-1.600000023841858
			],
			"type":"VEC3"
		},
		{
			"bufferView":9,
			"componentType":5126,
			"count":474,
			"type":"VEC3"
		},
		{
			"bufferView":10,
			"componentType":5126,
			"count":474,
			"type":"VEC2"
		},
		{
			"bufferView":11,
			"componentType":5123,
			"count":894,
			"type":"SCALAR"
		},
		{
			"bufferView":12,
			"componentType":5126,
			"count":157,
			"max":[
				1,
				1.5,
				1
			],
			"min":[
				-1,
				-2.0184874534606934,
				-1
			],
			"type":"VEC3"
		},
		{
			"bufferView":13,
			"componentType":5126,
			"count":157,
			"type":"VEC3"
		},
		{
			"bufferView":14,
			"componentType":5126,
			"count":157,
			"type":"VEC2"
		},
		{
			"bufferView":15,
			"componentType":5123,
			"count":297,
			"type":"SCALAR"
		},
		{
			"bufferView":16,
			"componentType":5126,
			"count":417,
			"max":[
				1.9609999656677246,
				0,
				0.009000000543892384
			],
			"min":[
				0.20200000703334808,
				0,
				-0.6910000443458557
			],
			"type":"VEC3"
		},
		{
			"bufferView":17,
			"componentType":5126,
			"count":417,
			"type":"VEC3"
		},
		{
			"bufferView":18,
			"componentType":5126,
			"count":417,
			"type":"VEC2"
		},
		{
			"bufferView":19,
			"componentType":5123,
			"count":1239,
			"type":"SCALAR"
		},
		{
			"bufferView":20,
			"componentType":5126,
			"count":248,
			"max":[
				1.9700000286102295,
				0,
				0.009000000543892384
			],
			"min":[
				0.20200000703334808,
				0,
				-0.6910000443458557
			],
			"type":"VEC3"
		},
		{
			"bufferView":21,
			"componentType":5126,
			"count":248,
			"type":"VEC3"
		},
		{
			"bufferView":22,
			"componentType":5126,
			"count":248,
			"type":"VEC2"
		},
		{
			"bufferView":23,
			"componentType":5123,
			"count":738,
			"type":"SCALAR"
		},
		{
			"bufferView":24,
			"componentType":5126,
			"count":156,
			"max":[
				1.7999999523162842,
				0,
				0.009000000543892384
			],
			"min":[
				0.20200000703334808,
				0,
				-0.6910000443458557
			],
			"type":"VEC3"
		},
		{
			"bufferView":25,
			"componentType":5126,
			"count":156,
			"type":"VEC3"
		},
		{
			"bufferView":26,
			"componentType":5126,
			"count":156,
			"type":"VEC2"
		},
		{
			"bufferView":27,
			"componentType":5123,
			"count":456,
			"type":"SCALAR"
		},
		{
			"bufferView":28,
			"componentType":5126,
			"count":157,
			"max":[
				1,
				1.5,
				1
			],
			"min":[
				-1,
				-2.0184874534606934,
				-1
			],
			"type":"VEC3"
		},
		{
			"bufferView":29,
			"componentType":5126,
			"count":157,
			"type":"VEC3"
		},
		{
			"bufferView":30,
			"componentType":5126,
			"count":157,
			"type":"VEC2"
		},
		{
			"bufferView":31,
			"componentType":5126,
			"count":1014,
			"max":[
				1.1820430755615234,
				1.5640417337417603,
				1.3199994564056396
			],
			"min":[
				-1.1818180084228516,
				-1.000000238418579,
				-1.054679274559021
			],
			"type":"VEC3"
		},
		{
			"bufferView":32,
			"componentType":5126,
			"count":1014,
			"type":"VEC3"
		},
		{
			"bufferView":33,
			"componentType":5126,
			"count":1014,
			"type":"VEC2"
		},
		{
			"bufferView":34,
			"componentType":5126,
			"count":58,
			"max":[
				12.625
			],
			"min":[
				10.25
			],
			"type":"SCALAR"
		},
		{
			"bufferView":35,
			"componentType":5126,
			"count":58,
			"type":"VEC3"
		},
		{
			"bufferView":36,
			"componentType":5126,
			"count":14,
			"max":[
				0.5416666666666666
			],
			"min":[
				0
			],
			"type":"SCALAR"
		},
		{
			"bufferView":37,
			"componentType":5126,
			"count":14,
			"type":"VEC3"
		},
		{
			"bufferView":38,
			"componentType":5126,
			"count":176,
			"max":[
				9.375
			],
			"min":[
				2.0833333333333335
			],
			"type":"SCALAR"
		},
		{
			"bufferView":39,
			"componentType":5126,
			"count":176,
			"type":"VEC3"
		},
		{
			"bufferView":40,
			"componentType":5126,
			"count":46,
			"max":[
				1.875
			],
			"min":[
				0
			],
			"type":"SCALAR"
		},
		{
			"bufferView":41,
			"componentType":5126,
			"count":46,
			"type":"VEC3"
		},
		{
			"bufferView":42,
			"componentType":5126,
			"count":134,
			"max":[
				9.291666666666666
			],
			"min":[
				3.75
			],
			"type":"SCALAR"
		},
		{
			"bufferView":43,
			"componentType":5126,
			"count":134,
			"type":"VEC3"
		},
		{
			"bufferView":44,
			"componentType":5126,
			"count":85,
			"max":[
				12.333333333333334
			],
			"min":[
				8.833333333333334
			],
			"type":"SCALAR"
		},
		{
			"bufferView":45,
			"componentType":5126,
			"count":85,
			"type":"VEC3"
		},
		{
			"bufferView":46,
			"componentType":5126,
			"count":119,
			"max":[
				9.083333333333334
			],
			"min":[
				4.166666666666667
			],
			"type":"SCALAR"
		},
		{
			"bufferView":47,
			"componentType":5126,
			"count":119,
			"type":"VEC3"
		},
		{
			"bufferView":48,
			"componentType":5126,
			"count":148,
			"max":[
				12.875
			],
			"min":[
				6.75
			],
			"type":"SCALAR"
		},
		{
			"bufferView":49,
			"componentType":5126,
			"count":148,
			"type":"VEC3"
		}
	],
	"bufferViews":[
		{
			"buffer":0,
			"byteLength":49152,
			"byteOffset":0,
			"target":34962
		},
		{
			"buffer":0,
			"byteLength":49152,
			"byteOffset":49152,
			"target":34962
		},
		{
			"buffer":0,
			"byteLength":32768,
			"byteOffset":98304,
			"target":34962
		},
		{
			"buffer":0,
			"byteLength":12288,
			"byteOffset":131072,
			"target":34963
		},
		{
			"buffer":0,
			"byteLength":12168,
			"byteOffset":143360,
			"target":34962
		},
		{
			"buffer":0,
			"byteLength":12168,
			"byteOffset":155528,
			"target":34962
		},
		{
			"buffer":0,
			"byteLength":8112,
			"byteOffset":167696,
			"target":34962
		},
		{
			"buffer":0,
			"byteLength":4152,
			"byteOffset":175808,
			"target":34963
		},
		{
			"buffer":0,
			"byteLength":5688,
			"byteOffset":179960,
			"target":34962
		},
		{
			"buffer":0,
			"byteLength":5688,
			"byteOffset":185648,
			"target":34962
		},
		{
			"buffer":0,
			"byteLength":3792,
			"byteOffset":191336,
			"target":34962
		},
		{
			"buffer":0,
			"byteLength":1788,
			"byteOffset":195128,
			"target":34963
		},
		{
			"buffer":0,
			"byteLength":1884,
			"byteOffset":196916,
			"target":34962
		},
		{
			"buffer":0,
			"byteLength":1884,
			"byteOffset":198800,
			"target":34962
		},
		{
			"buffer":0,
			"byteLength":1256,
			"byteOffset":200684,
			"target":34962
		},
		{
			"buffer":0,
			"byteLength":594,
			"byteOffset":201940,
			"target":34963
		},
		{
			"buffer":0,
			"byteLength":5004,
			"byteOffset":202536,
			"target":34962
		},
		{
			"buffer":0,
			"byteLength":5004,
			"byteOffset":207540,
			"target":34962
		},
		{
			"buffer":0,
			"byteLength":3336,
			"byteOffset":212544,
			"target":34962
		},
		{
			"buffer":0,
			"byteLength":2478,
			"byteOffset":215880,
			"target":34963
		},
		{
			"buffer":0,
			"byteLength":2976,
			"byteOffset":218360,
			"target":34962
		},
		{
			"buffer":0,
			"byteLength":2976,
			"byteOffset":221336,
			"target":34962
		},
		{
			"buffer":0,
			"byteLength":1984,
			"byteOffset":224312,
			"target":34962
		},
		{
			"buffer":0,
			"byteLength":1476,
			"byteOffset":226296,
			"target":34963
		},
		{
			"buffer":0,
			"byteLength":1872,
			"byteOffset":227772,
			"target":34962
		},
		{
			"buffer":0,
			"byteLength":1872,
			"byteOffset":229644,
			"target":34962
		},
		{
			"buffer":0,
			"byteLength":1248,
			"byteOffset":231516,
			"target":34962
		},
		{
			"buffer":0,
			"byteLength":912,
			"byteOffset":232764,
			"target":34963
		},
		{
			"buffer":0,
			"byteLength":1884,
			"byteOffset":233676,
			"target":34962
		},
		{
			"buffer":0,
			"byteLength":1884,
			"byteOffset":235560,
			"target":34962
		},
		{
			"buffer":0,
			"byteLength":1256,
			"byteOffset":237444,
			"target":34962
		},
		{
			"buffer":0,
			"byteLength":12168,
			"byteOffset":238700,
			"target":34962
		},
		{
			"buffer":0,
			"byteLength":12168,
			"byteOffset":250868,
			"target":34962
		},
		{
			"buffer":0,
			"byteLength":8112,
			"byteOffset":263036,
			"target":34962
		},
		{
			"buffer":0,
			"byteLength":232,
			"byteOffset":271148
		},
		{
			"buffer":0,
			"byteLength":696,
			"byteOffset":271380
		},
		{
			"buffer":0,
			"byteLength":56,
			"byteOffset":272076
		},
		{
			"buffer":0,
			"byteLength":168,
			"byteOffset":272132
		},
		{
			"buffer":0,
			"byteLength":704,
			"byteOffset":272300
		},
		{
			"buffer":0,
			"byteLength":2112,
			"byteOffset":273004
		},
		{
			"buffer":0,
			"byteLength":184,
			"byteOffset":275116
		},
		{
			"buffer":0,
			"byteLength":552,
			"byteOffset":275300
		},
		{
			"buffer":0,
			"byteLength":536,
			"byteOffset":275852
		},
		{
			"buffer":0,
			"byteLength":1608,
			"byteOffset":276388
		},
		{
			"buffer":0,
			"byteLength":340,
			"byteOffset":277996
		},
		{
			"buffer":0,
			"byteLength":1020,
			"byteOffset":278336
		},
		{
			"buffer":0,
			"byteLength":476,
			"byteOffset":279356
		},
		{
			"buffer":0,
			"byteLength":1428,
			"byteOffset":279832
		},
		{
			"buffer":0,
			"byteLength":592,
			"byteOffset":281260
		},
		{
			"buffer":0,
			"byteLength":1776,
			"byteOffset":281852
		}
	],
	"samplers":[
		{
			"magFilter":9729,
			"minFilter":9987
		}
	],
	"buffers":[
		{
			"byteLength":283628,
			"uri":"vorschau.bin"
		}
	]
}
